<?xml version="1.0" encoding="iso-8859-1"?>
<!-- Generator: Adobe Illustrator 19.0.0, SVG Export Plug-In . SVG Version: 6.00 Build 0)  -->
<svg version="1.1" id="Capa_1" xmlns="http://www.w3.org/2000/svg" xmlns:xlink="http://www.w3.org/1999/xlink" x="0px" y="0px"
	 viewBox="0 0 511.992 511.992" style="enable-background:new 0 0 511.992 511.992;" xml:space="preserve">
<g>
	<rect x="227.631" y="409.592" style="fill:#A4C2F7;" width="204.8" height="93.867"/>
	<path style="fill:#E3E7F2;" d="M425.057,277.859l-94.888,94.888c-3.671,3.671-8.651,5.734-13.843,5.734s-10.172-2.063-13.843-5.734
		l-82.622-82.623h-56.23c-4.933,2.411-18.389-6.301-13.223-1.867l92.261,91.906c0.63,0.63,1.363,1.084,2.029,1.655v27.772h170.667
		v-38.487c14.26-10.659,23.417-26.792,25.258-44.501C442.463,308.895,436.82,291.224,425.057,277.859L425.057,277.859z"/>
	<circle style="fill:#7FACFA;" cx="308.697" cy="456.525" r="21.333"/>
	<g>
		<path style="fill:#E3E7F2;" d="M295.08,99.851c12.243-5.357,19.433-18.198,17.602-31.435
			c-1.831-13.237-12.238-23.644-25.475-25.475c-13.237-1.831-26.079,5.359-31.435,17.602L295.08,99.851z"/>
		<path style="fill:#E3E7F2;" d="M337.747,142.517c12.243-5.357,19.433-18.198,17.602-31.435
			c-1.831-13.237-12.238-23.644-25.475-25.475c-13.237-1.831-26.079,5.359-31.435,17.602L337.747,142.517z"/>
		<path style="fill:#E3E7F2;" d="M380.414,185.184c12.243-5.357,19.433-18.198,17.602-31.435
			c-1.831-13.237-12.238-23.644-25.475-25.475s-26.079,5.359-31.435,17.602L380.414,185.184z"/>
		<path style="fill:#E3E7F2;" d="M423.081,227.851c12.243-5.357,19.433-18.198,17.602-31.435
			c-1.831-13.237-12.238-23.644-25.475-25.475c-13.237-1.831-26.079,5.359-31.435,17.602L423.081,227.851z"/>
	</g>
	
		<linearGradient id="SVGID_1_" gradientUnits="userSpaceOnUse" x1="-51.6369" y1="652.1158" x2="-50.6369" y2="652.1158" gradientTransform="matrix(369.9565 0 0 -369.9559 19174.4238 241447.6406)">
		<stop  offset="0" style="stop-color:#D4E1F4"/>
		<stop  offset="0.1717" style="stop-color:#D4E1F4"/>
		<stop  offset="0.2" style="stop-color:#D4E1F4"/>
		<stop  offset="0.2001" style="stop-color:#DAE4F4"/>
		<stop  offset="0.2007" style="stop-color:#EBEBF4"/>
		<stop  offset="0.2014" style="stop-color:#F6F1F4"/>
		<stop  offset="0.2023" style="stop-color:#FDF4F4"/>
		<stop  offset="0.205" style="stop-color:#FFF5F4"/>
		<stop  offset="0.2522" style="stop-color:#FFF5F4"/>
		<stop  offset="0.26" style="stop-color:#FFF5F4"/>
		<stop  offset="0.26" style="stop-color:#D4E1F4"/>
		<stop  offset="0.3974" style="stop-color:#D4E1F4"/>
		<stop  offset="0.42" style="stop-color:#D4E1F4"/>
		<stop  offset="0.4201" style="stop-color:#DAE4F4"/>
		<stop  offset="0.4207" style="stop-color:#EBEBF4"/>
		<stop  offset="0.4214" style="stop-color:#F6F1F4"/>
		<stop  offset="0.4223" style="stop-color:#FDF4F4"/>
		<stop  offset="0.425" style="stop-color:#FFF5F4"/>
		<stop  offset="0.4894" style="stop-color:#FFF5F4"/>
		<stop  offset="0.5" style="stop-color:#FFF5F4"/>
		<stop  offset="0.5" style="stop-color:#F9F2F4"/>
		<stop  offset="0.5001" style="stop-color:#E8EBF4"/>
		<stop  offset="0.5003" style="stop-color:#DDE5F4"/>
		<stop  offset="0.5005" style="stop-color:#D6E2F4"/>
		<stop  offset="0.501" style="stop-color:#D4E1F4"/>
		<stop  offset="0.7062" style="stop-color:#D4E1F4"/>
		<stop  offset="0.74" style="stop-color:#D4E1F4"/>
		<stop  offset="0.741" style="stop-color:#FFF5F4"/>
		<stop  offset="0.8346" style="stop-color:#FFF5F4"/>
		<stop  offset="0.85" style="stop-color:#FFF5F4"/>
		<stop  offset="0.851" style="stop-color:#D4E1F4"/>
	</linearGradient>
	<path style="fill:url(#SVGID_1_);" d="M435.23,240L209.489,14.259c-3.671-3.671-8.651-5.734-13.843-5.734
		c-5.192,0-10.172,2.063-13.843,5.734L76.741,119.32c-3.671,3.671-5.734,8.651-5.734,13.843c0,5.192,2.063,10.172,5.734,13.843
		l83.708,83.708c1.054-0.166,2.115-0.274,3.181-0.323h85.333c16.495,0,29.867,13.372,29.867,29.867
		c0,16.495-13.372,29.867-29.867,29.867H219.86l82.622,82.622c3.671,3.671,8.651,5.734,13.843,5.734s10.172-2.063,13.843-5.734
		L435.23,267.686C442.875,260.041,442.875,247.645,435.23,240z"/>
	<path style="fill:#A4C2F7;" d="M209.489,14.259c-3.671-3.671-8.651-5.734-13.843-5.734c-5.192,0-10.172,2.063-13.843,5.734
		L76.741,119.32c-3.671,3.671-5.734,8.651-5.734,13.843c0,5.192,2.063,10.172,5.734,13.843l26.073,26.073L235.562,40.332
		L209.489,14.259z"/>
	<g>
		<path style="fill:#428DFF;" d="M432.431,511.992h-204.8c-2.264,0.001-4.435-0.897-6.035-2.498
			c-1.601-1.601-2.499-3.772-2.498-6.035v-93.867c-0.001-2.264,0.897-4.435,2.498-6.035c1.601-1.601,3.772-2.499,6.035-2.498h204.8
			c2.264-0.001,4.435,0.897,6.035,2.498c1.601,1.601,2.499,3.772,2.498,6.035v93.867c0.001,2.264-0.897,4.435-2.498,6.035
			C436.865,511.094,434.694,511.993,432.431,511.992L432.431,511.992z M236.164,494.925h187.733v-76.8H236.164V494.925z"/>
		<path style="fill:#428DFF;" d="M364.164,511.992H227.631c-2.264,0.001-4.435-0.897-6.035-2.498
			c-1.601-1.601-2.499-3.772-2.498-6.035v-93.867c-0.001-2.264,0.897-4.435,2.498-6.035c1.601-1.601,3.772-2.499,6.035-2.498h80.433
			c35.68,0.038,64.595,28.953,64.633,64.633v37.767c0.001,2.264-0.897,4.435-2.498,6.035
			C368.599,511.094,366.428,511.993,364.164,511.992z M236.164,494.925h119.467v-29.233c-0.032-26.257-21.31-47.535-47.567-47.567
			h-71.9V494.925z"/>
		<path style="fill:#428DFF;" d="M308.697,486.392c-16.495,0-29.867-13.372-29.867-29.867c0-16.495,13.372-29.867,29.867-29.867
			s29.867,13.372,29.867,29.867C338.544,473.012,325.184,486.372,308.697,486.392z M308.697,443.725c-7.069,0-12.8,5.731-12.8,12.8
			s5.731,12.8,12.8,12.8s12.8-5.731,12.8-12.8C321.49,449.459,315.763,443.733,308.697,443.725z"/>
		<path style="fill:#428DFF;" d="M295.081,108.383c-2.263,0-4.433-0.9-6.033-2.5l-39.309-39.308
			c-2.485-2.489-3.192-6.245-1.783-9.467c6.893-15.737,23.405-24.977,40.423-22.62c17.018,2.357,30.397,15.736,32.754,32.754
			c2.357,17.018-6.882,33.53-22.62,40.423C297.431,108.139,296.262,108.383,295.081,108.383z M266.481,59.183l29.958,29.958
			c6.383-5.111,9.279-13.423,7.454-21.393s-8.049-14.194-16.019-16.019C279.903,49.904,271.591,52.8,266.481,59.183L266.481,59.183z
			"/>
		<path style="fill:#428DFF;" d="M337.747,151.05c-2.263,0-4.433-0.9-6.033-2.5l-39.308-39.308
			c-2.485-2.489-3.192-6.245-1.783-9.467c6.893-15.737,23.405-24.977,40.423-22.62c17.018,2.357,30.397,15.736,32.754,32.754
			c2.357,17.018-6.882,33.53-22.62,40.423C340.098,150.806,338.929,151.05,337.747,151.05L337.747,151.05z M309.147,101.85
			l29.958,29.958c6.383-5.111,9.279-13.423,7.454-21.393s-8.049-14.194-16.019-16.019C322.57,92.571,314.258,95.467,309.147,101.85
			L309.147,101.85z"/>
		<path style="fill:#428DFF;" d="M380.414,193.717c-2.263,0-4.433-0.9-6.033-2.5l-39.308-39.308
			c-2.485-2.489-3.192-6.245-1.783-9.467c6.893-15.737,23.405-24.977,40.423-22.62c17.018,2.357,30.397,15.736,32.754,32.754
			c2.357,17.018-6.882,33.53-22.62,40.423C382.765,193.473,381.596,193.717,380.414,193.717z M351.814,144.517l29.958,29.958
			c6.383-5.111,9.279-13.423,7.454-21.393c-1.825-7.971-8.049-14.195-16.019-16.019
			C365.237,135.238,356.925,138.134,351.814,144.517z"/>
		<path style="fill:#428DFF;" d="M423.081,236.383c-2.263,0-4.433-0.9-6.033-2.5l-39.308-39.308
			c-2.485-2.489-3.192-6.245-1.783-9.467c6.893-15.737,23.405-24.977,40.423-22.62c17.018,2.357,30.397,15.736,32.754,32.754
			c2.357,17.018-6.882,33.53-22.62,40.423C425.431,236.139,424.262,236.383,423.081,236.383L423.081,236.383z M394.481,187.183
			l29.958,29.958c6.383-5.111,9.279-13.423,7.454-21.393c-1.825-7.971-8.049-14.195-16.019-16.019
			C407.903,177.904,399.591,180.8,394.481,187.183L394.481,187.183z"/>
	</g>
	<path style="fill:#E3E7F2;" d="M163.631,230.392h85.333c16.495,0,29.867,13.372,29.867,29.867l0,0
		c0,16.495-13.372,29.867-29.867,29.867h-85.333c-16.495,0-29.867-13.372-29.867-29.867l0,0
		C133.764,243.763,147.136,230.392,163.631,230.392z"/>
	<path style="fill:#428DFF;" d="M248.964,298.658h-85.333c-21.208,0-38.4-17.192-38.4-38.4s17.192-38.4,38.4-38.4h85.333
		c21.208,0,38.4,17.192,38.4,38.4S270.172,298.658,248.964,298.658z M163.631,238.925c-11.782,0-21.333,9.551-21.333,21.333
		c0,11.782,9.551,21.333,21.333,21.333h85.333c11.782,0,21.333-9.551,21.333-21.333c0-11.782-9.551-21.333-21.333-21.333H163.631z"
		/>
	<circle style="fill:#A4C2F7;" cx="347.097" cy="281.592" r="25.6"/>
	<g>
		<path style="fill:#428DFF;" d="M347.097,315.725c-18.851,0-34.133-15.282-34.133-34.133c0-18.851,15.282-34.133,34.133-34.133
			c18.851,0,34.133,15.282,34.133,34.133C381.212,300.435,365.941,315.706,347.097,315.725z M347.097,264.525
			c-9.426,0-17.067,7.641-17.067,17.067s7.641,17.067,17.067,17.067s17.067-7.641,17.067-17.067
			C364.152,272.171,356.518,264.537,347.097,264.525z"/>
		<path style="fill:#428DFF;" d="M142.297,102.392c-3.451-0.001-6.562-2.08-7.882-5.268c-1.32-3.188-0.591-6.858,1.849-9.298
			l17.067-17.067c3.341-3.281,8.701-3.256,12.012,0.054s3.335,8.671,0.054,12.012L148.33,99.891
			C146.732,101.494,144.561,102.394,142.297,102.392z"/>
		<path style="fill:#428DFF;" d="M316.322,387c-7.453,0.01-14.605-2.946-19.875-8.217l-82.617-82.625
			c-2.44-2.44-3.171-6.11-1.85-9.299c1.321-3.188,4.432-5.268,7.883-5.268h29.1c11.782,0,21.333-9.551,21.333-21.333
			c0-11.782-9.551-21.333-21.333-21.333h-85.333c-0.355,0.016-0.709,0.058-1.058,0.125l-1.192,0.15
			c-2.575,0.295-5.143-0.608-6.967-2.45l-83.709-83.708c-10.95-10.991-10.95-28.767,0-39.758L175.772,8.225
			c11.123-10.617,28.627-10.617,39.75,0l225.742,225.742c5.272,5.271,8.233,12.42,8.233,19.875s-2.962,14.604-8.233,19.875
			L336.206,378.783C330.933,384.055,323.779,387.012,316.322,387z M240.464,298.658l68.05,68.058c4.317,4.308,11.308,4.308,15.625,0
			L429.197,261.65c4.308-4.314,4.308-11.303,0-15.617L203.456,20.292c-4.318-4.3-11.299-4.3-15.617,0L82.772,125.35
			c-4.3,4.321-4.3,11.304,0,15.625l80.883,80.883h85.308c21.208,0,38.4,17.192,38.4,38.4s-17.192,38.4-38.4,38.4H240.464z"/>
		<path style="fill:#428DFF;" d="M415.364,418.125H244.697c-2.264,0.001-4.435-0.897-6.035-2.498
			c-1.601-1.601-2.499-3.772-2.498-6.035v-23.858L144.381,294.3c-3.843-2.617-4.909-7.814-2.408-11.733
			c2.961-4.168,8.65-5.32,13-2.633c1.964,0.862,4,1.551,6.083,2.058c0.832-0.266,1.701-0.401,2.575-0.4h56.233
			c2.263,0,4.434,0.899,6.033,2.5l82.617,82.625c4.317,4.308,11.308,4.308,15.625,0l94.884-94.892
			c1.616-1.749,3.942-2.666,6.317-2.492c2.358,0.076,4.579,1.126,6.133,2.9c12.829,14.581,19.255,33.709,17.83,53.078
			c-1.425,19.369-10.58,37.351-25.405,49.897v34.383c0.001,2.264-0.897,4.435-2.498,6.035
			C419.799,417.228,417.628,418.126,415.364,418.125L415.364,418.125z M253.231,401.058h153.6v-29.95
			c-0.002-2.681,1.258-5.206,3.4-6.817c22.988-17.156,29.02-49.052,13.884-73.417l-87.909,87.908
			c-10.991,10.95-28.767,10.95-39.758,0l-80.117-80.125h-43.392l75.75,75.467c0.742,0.55,1.15,0.858,1.533,1.192
			c1.908,1.62,3.008,3.997,3.008,6.5V401.058z"/>
		<path style="fill:#428DFF;" d="M102.814,181.617c-2.264,0.003-4.435-0.897-6.033-2.5l-26.075-26.075
			c-10.95-10.991-10.95-28.767,0-39.758L175.772,8.225c10.981-10.967,28.769-10.967,39.75,0L241.597,34.3
			c1.601,1.6,2.5,3.77,2.5,6.033s-0.899,4.433-2.5,6.033l-132.75,132.75C107.249,180.72,105.078,181.619,102.814,181.617
			L102.814,181.617z M195.648,17.058c-2.93-0.008-5.741,1.157-7.808,3.233L82.772,125.35c-4.3,4.321-4.3,11.304,0,15.625
			l20.042,20.042L223.497,40.333l-20.042-20.042C201.389,18.215,198.578,17.051,195.648,17.058z"/>
	</g>
</g>
<g>
</g>
<g>
</g>
<g>
</g>
<g>
</g>
<g>
</g>
<g>
</g>
<g>
</g>
<g>
</g>
<g>
</g>
<g>
</g>
<g>
</g>
<g>
</g>
<g>
</g>
<g>
</g>
<g>
</g>
</svg>
